<?xml version="1.0" standalone="no"?>
<!DOCTYPE svg PUBLIC "-//W3C//DTD SVG 20010904//EN"
 "http://www.w3.org/TR/2001/REC-SVG-20010904/DTD/svg10.dtd">
<svg version="1.0" xmlns="http://www.w3.org/2000/svg"
 width="40.000000pt" height="40.000000pt" viewBox="0 0 40.000000 40.000000"
 preserveAspectRatio="xMidYMid meet">

<g transform="translate(0.000000,40.000000) scale(0.100000,-0.100000)"
fill="#A57910" stroke="none">
<path d="M75 250 l-50 -50 53 -52 c41 -41 54 -50 64 -40 9 9 4 21 -27 52 l-39
40 38 39 c33 34 41 61 18 61 -4 0 -30 -23 -57 -50z"/>
<path d="M254 289 c-3 -6 11 -28 32 -50 l38 -39 -39 -40 c-31 -31 -36 -43 -27
-52 10 -10 23 -1 64 40 l53 52 -50 50 c-52 52 -60 57 -71 39z"/>
<path d="M174 216 c-10 -26 4 -48 28 -44 17 2 23 10 23 28 0 18 -6 26 -23 28
-13 2 -25 -3 -28 -12z"/>
</g>
</svg>
