<?xml version="1.0" encoding="UTF-8" standalone="no"?>
<!-- Generator: Adobe Illustrator 15.1.0, SVG Export Plug-In . SVG Version: 6.00 Build 0)  -->

<svg
   xmlns:dc="http://purl.org/dc/elements/1.1/"
   xmlns:cc="http://creativecommons.org/ns#"
   xmlns:rdf="http://www.w3.org/1999/02/22-rdf-syntax-ns#"
   xmlns:svg="http://www.w3.org/2000/svg"
   xmlns="http://www.w3.org/2000/svg"
   xmlns:sodipodi="http://sodipodi.sourceforge.net/DTD/sodipodi-0.dtd"
   xmlns:inkscape="http://www.inkscape.org/namespaces/inkscape"
   version="1.1"
   id="Layer_1"
   x="0px"
   y="0px"
   width="185.00006"
   height="39.011002"
   viewBox="0 0 185.00006 39.011002"
   enable-background="new 0 0 268 58"
   xml:space="preserve"
   inkscape:version="0.48.3.1 r9886"
   sodipodi:docname="Kukarika_Logo_White.svg"><metadata
   id="metadata35"><rdf:RDF><cc:Work
       rdf:about=""><dc:format>image/svg+xml</dc:format><dc:type
         rdf:resource="http://purl.org/dc/dcmitype/StillImage" /></cc:Work></rdf:RDF></metadata><defs
   id="defs33" /><sodipodi:namedview
   pagecolor="#313942"
   bordercolor="#313942"
   borderopacity="1"
   objecttolerance="10"
   gridtolerance="10"
   guidetolerance="10"
   inkscape:pageopacity="0"
   inkscape:pageshadow="2"
   inkscape:window-width="1920"
   inkscape:window-height="1004"
   id="namedview31"
   showgrid="false"
   fit-margin-top="0"
   fit-margin-left="0"
   fit-margin-right="0"
   fit-margin-bottom="0"
   inkscape:zoom="1.0895522"
   inkscape:cx="-59.855134"
   inkscape:cy="19.5055"
   inkscape:window-x="0"
   inkscape:window-y="24"
   inkscape:window-maximized="1"
   inkscape:current-layer="Layer_1" />
<g
   id="g3"
   transform="matrix(0.69468979,0,0,0.69468979,-0.58770756,-0.64050399)">
	<g
   id="g5">
		<path
   d="m 91.616,37.09 c 2.193,0 3.945,1.754 3.945,3.947 v 1.975 c 0,2.191 -1.752,3.945 -3.945,3.945 -2.189,0 -3.943,-1.754 -3.943,-3.945 v -1.975 c -2.195,0 -3.949,-1.754 -3.949,-3.947 h -3.945 v 5.922 c 0,2.191 -1.756,3.945 -3.949,3.945 -2.191,0 -3.945,-1.754 -3.945,-3.945 V 11.438 c 0,-2.195 1.754,-3.951 3.945,-3.951 2.193,0 3.949,1.756 3.949,3.951 v 17.76 h 3.945 c 0,-2.191 1.754,-3.947 3.949,-3.947 V 23.28 c 0,-2.195 1.754,-3.949 3.943,-3.949 2.193,0 3.945,1.754 3.945,3.949 v 1.971 c 0,2.193 -1.752,3.947 -3.945,3.947 v 7.892 z"
   id="path7"
   inkscape:connector-curvature="0"
   style="fill:#313942" />
		<path
   d="m 98.401,23.279 c 0,-2.195 1.756,-3.949 3.947,-3.949 2.193,0 3.949,1.754 3.949,3.949 v 15.785 h 9.867 V 23.279 c 0,-2.195 1.752,-3.949 3.945,-3.949 2.191,0 3.945,1.754 3.945,3.949 v 19.732 c 0,2.191 -1.754,3.945 -3.945,3.945 h -13.812 c -2.193,0 -3.949,-1.754 -3.949,-3.945 -2.191,0 -3.947,-1.754 -3.947,-3.947 V 23.279 z"
   id="path9"
   inkscape:connector-curvature="0"
   style="fill:#313942" />
		<path
   d="m 147.413,37.09 c 2.193,0 3.949,1.754 3.949,3.947 v 1.975 c 0,2.191 -1.756,3.945 -3.949,3.945 -2.191,0 -3.943,-1.754 -3.943,-3.945 v -1.975 c -2.195,0 -3.949,-1.754 -3.949,-3.947 h -3.945 v 5.922 c 0,2.191 -1.754,3.945 -3.947,3.945 -2.191,0 -3.947,-1.754 -3.947,-3.945 V 11.438 c 0,-2.195 1.756,-3.951 3.947,-3.951 2.193,0 3.947,1.756 3.947,3.951 v 17.76 h 3.945 c 0,-2.191 1.754,-3.947 3.949,-3.947 V 23.28 c 0,-2.195 1.752,-3.949 3.943,-3.949 2.193,0 3.949,1.754 3.949,3.949 v 1.971 c 0,2.193 -1.756,3.947 -3.949,3.947 v 7.892 z"
   id="path11"
   inkscape:connector-curvature="0"
   style="fill:#313942" />
		<path
   d="m 153.731,37.09 c 0,-2.193 1.752,-3.945 3.945,-3.945 0,-2.191 1.756,-3.947 3.945,-3.947 h 9.869 v -1.973 h -11.844 c -2.189,0 -3.945,-1.756 -3.945,-3.945 0,-2.195 1.756,-3.949 3.945,-3.949 h 11.844 c 2.191,0 3.945,1.754 3.945,3.949 2.191,0 3.947,1.752 3.947,3.945 v 15.787 c 0,2.191 -1.756,3.945 -3.947,3.945 h -13.814 c -2.189,0 -3.945,-1.754 -3.945,-3.945 -2.193,0 -3.945,-1.754 -3.945,-3.947 V 37.09 z m 17.76,1.974 V 37.09 h -9.869 v 1.975 h 9.869 z"
   id="path13"
   inkscape:connector-curvature="0"
   style="fill:#313942" />
		<path
   d="m 182.786,27.225 c 0,-2.193 1.754,-3.945 3.947,-3.945 0,-2.195 1.754,-3.949 3.947,-3.949 h 7.895 c 2.191,0 3.945,1.754 3.945,3.949 0,2.189 -1.754,3.945 -3.945,3.945 h -7.895 v 15.787 c 0,2.191 -1.756,3.945 -3.947,3.945 -2.193,0 -3.947,-1.754 -3.947,-3.945 V 27.225 z"
   id="path15"
   inkscape:connector-curvature="0"
   style="fill:#313942" />
		<path
   d="m 203.995,11.438 c 0,-2.195 1.756,-3.951 3.947,-3.951 2.193,0 3.947,1.756 3.947,3.951 v 1.973 c 0,2.191 -1.754,3.947 -3.947,3.947 -2.191,0 -3.947,-1.756 -3.947,-3.947 v -1.973 z m 0,11.841 c 0,-2.195 1.756,-3.949 3.947,-3.949 2.193,0 3.947,1.754 3.947,3.949 v 19.732 c 0,2.191 -1.754,3.945 -3.947,3.945 -2.191,0 -3.947,-1.754 -3.947,-3.945 V 23.279 z"
   id="path17"
   inkscape:connector-curvature="0"
   style="fill:#313942" />
		<path
   d="m 235.185,37.09 c 2.193,0 3.945,1.754 3.945,3.947 v 1.975 c 0,2.191 -1.752,3.945 -3.945,3.945 -2.193,0 -3.947,-1.754 -3.947,-3.945 v -1.975 c -2.193,0 -3.947,-1.754 -3.947,-3.947 h -3.947 v 5.922 c 0,2.191 -1.754,3.945 -3.945,3.945 -2.193,0 -3.949,-1.754 -3.949,-3.945 V 11.438 c 0,-2.195 1.756,-3.951 3.949,-3.951 2.191,0 3.945,1.756 3.945,3.951 v 17.76 h 3.947 c 0,-2.191 1.754,-3.947 3.947,-3.947 V 23.28 c 0,-2.195 1.754,-3.949 3.947,-3.949 2.193,0 3.945,1.754 3.945,3.949 v 1.971 c 0,2.193 -1.752,3.947 -3.945,3.947 v 7.892 z"
   id="path19"
   inkscape:connector-curvature="0"
   style="fill:#313942" />
		<path
   d="m 241.501,37.09 c 0,-2.193 1.752,-3.945 3.945,-3.945 0,-2.191 1.754,-3.947 3.943,-3.947 h 9.869 V 27.225 H 247.42 c -2.195,0 -3.947,-1.756 -3.947,-3.945 0,-2.195 1.752,-3.949 3.947,-3.949 h 11.838 c 2.193,0 3.945,1.754 3.945,3.949 2.195,0 3.949,1.752 3.949,3.945 v 15.787 c 0,2.191 -1.754,3.945 -3.949,3.945 H 249.39 c -2.189,0 -3.943,-1.754 -3.943,-3.945 -2.193,0 -3.945,-1.754 -3.945,-3.947 V 37.09 z m 17.758,1.974 V 37.09 h -9.869 v 1.975 h 9.869 z"
   id="path21"
   inkscape:connector-curvature="0"
   style="fill:#313942" />
	</g>
	<g
   id="g23">
		<g
   id="g25">
			<path
   d="m 49.075,49.145 c 4.602,-1.514 7.93,-5.852 7.93,-10.947 V 19.801 c 0,-5.1 -3.328,-9.436 -7.93,-10.949 C 47.557,4.25 43.223,0.922 38.124,0.922 H 19.729 c -5.1,0 -9.438,3.328 -10.951,7.93 -4.6,1.514 -7.932,5.85 -7.932,10.949 v 18.396 c 0,5.096 3.332,9.434 7.932,10.947 1.514,4.6 5.852,7.934 10.951,7.934 h 18.395 c 5.1,0 9.434,-3.334 10.951,-7.933 z m -29.346,3.761 c -4.086,0 -7.357,-3.268 -7.357,-7.355 -4.086,0 -7.355,-3.27 -7.355,-7.354 V 19.801 c 0,-4.084 3.27,-7.354 7.355,-7.354 0,-4.09 3.271,-7.357 7.357,-7.357 h 18.395 c 4.086,0 7.355,3.268 7.355,7.357 4.086,0 7.357,3.27 7.357,7.354 v 18.396 c 0,4.084 -3.271,7.354 -7.357,7.354 0,4.088 -3.27,7.355 -7.355,7.355 H 19.729 z"
   id="path27"
   inkscape:connector-curvature="0"
   style="fill:#313942" />
		</g>
		<path
   d="m 32.235,39.375 c 0.182,-0.432 0.279,-0.906 0.279,-1.402 v -5.385 h 3.592 c 0,1.994 1.594,3.59 3.588,3.59 v 1.795 c 0,1.992 1.594,3.588 3.59,3.588 1.992,0 3.588,-1.596 3.588,-3.588 v -1.795 c 0,-1.992 -1.596,-3.59 -3.588,-3.59 v -7.18 c 1.992,0 3.588,-1.596 3.588,-3.588 v -1.793 c 0,-1.996 -1.596,-3.59 -3.588,-3.59 -1.996,0 -3.59,1.594 -3.59,3.59 v 1.793 c -1.994,0 -3.588,1.596 -3.588,3.588 h -3.592 v -5.381 c 0,-0.5 -0.098,-0.975 -0.279,-1.404 -0.543,-1.289 -1.812,-2.186 -3.309,-2.186 l 0,0 0,0 c -1.371,0 -2.553,0.75 -3.16,1.873 -0.273,0.506 -0.43,1.092 -0.43,1.717 v 5.381 h -3.59 c 0,-1.992 -1.594,-3.588 -3.59,-3.588 v -1.793 c 0,-1.996 -1.596,-3.59 -3.588,-3.59 -1.994,0 -3.588,1.594 -3.588,3.59 v 1.793 c 0,1.992 1.594,3.588 3.588,3.588 v 7.18 c -1.994,0 -3.588,1.598 -3.588,3.59 v 1.795 c 0,1.992 1.594,3.588 3.588,3.588 1.992,0 3.588,-1.596 3.588,-3.588 v -1.795 c 1.996,0 3.59,-1.596 3.59,-3.59 h 3.59 v 5.385 c 0,0.625 0.156,1.207 0.43,1.715 0.607,1.119 1.789,1.873 3.16,1.873 l 0,0 0,0 c 1.497,0 2.766,-0.897 3.309,-2.186 z"
   id="path29"
   inkscape:connector-curvature="0"
   style="fill:#313942" />
	</g>
</g>
</svg>